<svg width="53" height="60" viewBox="0 0 53 60" fill="none" xmlns="http://www.w3.org/2000/svg">
<rect width="53" height="60" fill="#D9D9D9"/>
<g clip-path="url(#clip0_313_44)">
<path d="M18.5532 41.5H28.5438C33.7303 41.5 36.8468 38.8895 36.8468 34.6115C36.8468 31.4433 34.659 29.103 31.3728 28.7638V28.4763C33.7648 28.0738 35.6336 25.8025 35.6336 23.2553C35.6336 19.5178 32.888 17.189 28.3253 17.189H18.5532V41.5ZM22.3281 27.4844V20.3918H27.4456C30.243 20.3918 31.8788 21.7057 31.8788 23.9482C31.8788 26.2539 30.1423 27.4844 26.8073 27.4844H22.3281ZM22.3281 38.3002V30.4658H27.5663C31.1198 30.4658 32.9915 31.7969 32.9915 34.3413C32.9915 36.9173 31.1888 38.3002 27.7848 38.3002H22.3281V38.3002Z" fill="#800ADD"/>
<path d="M4 18.5C4 15.45 5.2116 12.5249 7.36827 10.3683C9.52494 8.2116 12.45 7 15.5 7L38.5 7C41.55 7 44.4751 8.2116 46.6317 10.3683C48.7884 12.5249 50 15.45 50 18.5V41.5C50 44.55 48.7884 47.4751 46.6317 49.6317C44.4751 51.7884 41.55 53 38.5 53H15.5C12.45 53 9.52494 51.7884 7.36827 49.6317C5.2116 47.4751 4 44.55 4 41.5V18.5ZM15.5 9.875C13.2125 9.875 11.0187 10.7837 9.4012 12.4012C7.7837 14.0187 6.875 16.2125 6.875 18.5V41.5C6.875 43.7875 7.7837 45.9813 9.4012 47.5988C11.0187 49.2163 13.2125 50.125 15.5 50.125H38.5C40.7875 50.125 42.9813 49.2163 44.5988 47.5988C46.2163 45.9813 47.125 43.7875 47.125 41.5V18.5C47.125 16.2125 46.2163 14.0187 44.5988 12.4012C42.9813 10.7837 40.7875 9.875 38.5 9.875H15.5Z" fill="#800ADD"/>
</g>
<defs>
<clipPath id="clip0_313_44">
<rect width="46" height="46" fill="white" transform="translate(4 7)"/>
</clipPath>
</defs>
</svg>
