<svg width="53" height="60" viewBox="0 0 53 60" fill="none" xmlns="http://www.w3.org/2000/svg">
<rect width="53" height="60" fill="#D9D9D9"/>
<path d="M45.7321 10.2826C45.5378 10.1026 45.2648 10 44.9774 10H5.02259C4.73524 10 4.46221 10.1026 4.26792 10.2826C4.07362 10.4626 3.97852 10.7043 4.00409 10.947L7.60362 45.2313C7.64146 45.5896 7.93494 45.8913 8.34194 45.9904L24.7137 49.967C24.8047 49.9887 24.8998 50 24.9939 50C25.088 50 25.1831 49.9887 25.2741 49.967L41.6601 45.9904C42.0671 45.8913 42.3606 45.5896 42.3985 45.2313L45.9959 10.947C46.0215 10.7043 45.9254 10.4626 45.7321 10.2826ZM11.7063 33.4817L18.8644 35.1704V17.8261H22.9548V40.4348L11.7063 37.7817V33.4817ZM38.349 27.3913L37.2712 38.0435L27.0452 40.4348V36.4339L33.9477 34.8209L34.2034 31.56L27.0452 32.6087V17.8261H39.3164L38.9636 21.3043H31.1356V28.2609L38.349 27.3913Z" fill="#8B2CF5"/>
</svg>
