<svg width="357" height="60" viewBox="0 0 357 60" fill="none" xmlns="http://www.w3.org/2000/svg">
<rect width="53" height="60" fill="#D9D9D9"/>
<path d="M45 10H9L13 46L27 50L41 46L45 10ZM36.6484 22.1641H21.3359L21.7031 26.5234H36.2812L35.1875 39.3984L27 42.0078L26.9219 41.9766L18.8281 39.3984L18.3828 34.1484H22.3516L22.5234 36.1875L27.0469 37.1875L31.4844 36.1875L31.9609 30.6797H18.0859L17.0156 18H37.0078L36.6484 22.1641Z" fill="#8B2CF5"/>
<rect x="76" width="53" height="60" fill="#D9D9D9"/>
<path d="M121.732 10.2826C121.538 10.1026 121.265 10 120.977 10H81.0226C80.7352 10 80.4622 10.1026 80.2679 10.2826C80.0736 10.4626 79.9785 10.7043 80.0041 10.947L83.6036 45.2313C83.6415 45.5896 83.9349 45.8913 84.3419 45.9904L100.714 49.967C100.805 49.9887 100.9 50 100.994 50C101.088 50 101.183 49.9887 101.274 49.967L117.66 45.9904C118.067 45.8913 118.361 45.5896 118.398 45.2313L121.996 10.947C122.022 10.7043 121.925 10.4626 121.732 10.2826ZM87.7063 33.4817L94.8644 35.1704V17.8261H98.9548V40.4348L87.7063 37.7817V33.4817ZM114.349 27.3913L113.271 38.0435L103.045 40.4348V36.4339L109.948 34.8209L110.203 31.56L103.045 32.6087V17.8261H115.316L114.964 21.3043H107.136V28.2609L114.349 27.3913Z" fill="#8B2CF5"/>
<rect x="152" width="53" height="60" fill="#D9D9D9"/>
<path d="M161 10L165 46L178.984 50L193 46L197 10H161ZM188.453 26.6953L187.688 39.1797L179.055 42L170.422 39.1797L170.094 33.2109H174.469L174.578 35.9219L179.055 37.4453L183.539 35.9219L183.867 31.0391H174.25L174.031 26.6953H184.078L184.406 22.3516H169.328L169 18.0156H189L188.453 26.6953Z" fill="#8B2CF5"/>
<rect x="228" width="53" height="60" fill="#D9D9D9"/>
<g clip-path="url(#clip0_334_3)">
<path d="M246.553 41.5H256.544C261.73 41.5 264.847 38.8895 264.847 34.6115C264.847 31.4433 262.659 29.103 259.373 28.7638V28.4763C261.765 28.0738 263.634 25.8025 263.634 23.2553C263.634 19.5178 260.888 17.189 256.325 17.189H246.553V41.5ZM250.328 27.4844V20.3918H255.446C258.243 20.3918 259.879 21.7057 259.879 23.9482C259.879 26.2539 258.142 27.4844 254.807 27.4844H250.328ZM250.328 38.3002V30.4658H255.566C259.12 30.4658 260.991 31.7969 260.991 34.3413C260.991 36.9173 259.189 38.3002 255.785 38.3002H250.328Z" fill="#800ADD"/>
<path d="M232 18.5C232 15.45 233.212 12.5249 235.368 10.3683C237.525 8.2116 240.45 7 243.5 7L266.5 7C269.55 7 272.475 8.2116 274.632 10.3683C276.788 12.5249 278 15.45 278 18.5V41.5C278 44.55 276.788 47.4751 274.632 49.6317C272.475 51.7884 269.55 53 266.5 53H243.5C240.45 53 237.525 51.7884 235.368 49.6317C233.212 47.4751 232 44.55 232 41.5V18.5ZM243.5 9.875C241.213 9.875 239.019 10.7837 237.401 12.4012C235.784 14.0187 234.875 16.2125 234.875 18.5V41.5C234.875 43.7875 235.784 45.9813 237.401 47.5988C239.019 49.2163 241.213 50.125 243.5 50.125H266.5C268.787 50.125 270.981 49.2163 272.599 47.5988C274.216 45.9813 275.125 43.7875 275.125 41.5V18.5C275.125 16.2125 274.216 14.0187 272.599 12.4012C270.981 10.7837 268.787 9.875 266.5 9.875H243.5Z" fill="#800ADD"/>
</g>
<rect x="304" width="53" height="60" fill="#D9D9D9"/>
<g clip-path="url(#clip1_334_3)">
<path d="M344.32 29.0024C344.32 26.5644 343.443 24.8767 342.693 23.5629L342.463 23.1891C341.551 21.7229 340.755 20.4349 340.755 18.9341C340.755 17.1229 342.129 15.4324 344.067 15.4324C344.124 15.4324 344.179 15.4381 344.234 15.441L344.323 15.4496C340.689 12.1122 335.934 10.2629 331 10.2689C327.73 10.2672 324.511 11.0791 321.633 12.6315C318.756 14.1838 316.309 16.4278 314.515 19.1613C314.975 19.1756 315.415 19.1871 315.785 19.1871C317.847 19.1871 321.041 18.937 321.041 18.937C322.105 18.8737 322.231 20.4349 321.167 20.5614C321.167 20.5614 320.101 20.6879 318.911 20.7483L326.098 42.121L330.411 29.1663L327.334 20.7454C326.273 20.6821 325.267 20.5585 325.267 20.5585C324.203 20.4952 324.33 18.868 325.391 18.9312C325.391 18.9312 328.651 19.1814 330.589 19.1814C332.653 19.1814 335.85 18.9312 335.85 18.9312C336.914 18.868 337.037 20.432 335.974 20.5585C335.974 20.5585 334.904 20.6821 333.717 20.7454L340.847 41.9542L342.813 35.3791L342.969 34.8817C343.745 32.4092 344.317 30.5836 344.317 28.9995L344.32 29.0024ZM311.269 30C311.269 33.7051 312.312 37.3355 314.278 40.4756C316.245 43.6157 319.056 46.1388 322.389 47.756L312.974 21.9672C311.846 24.4949 311.265 27.2322 311.269 30Z" fill="#800ADD"/>
<path d="M325.425 48.9262L331.348 31.725L337.411 48.3425C337.451 48.4374 337.497 48.5265 337.552 48.6128C333.643 49.9898 329.4 50.0995 325.425 48.9262ZM348.31 20.5327C348.397 21.1623 348.445 21.835 348.445 22.5624C348.445 24.5634 348.072 26.8145 346.945 29.6292L340.919 47.0517C345.365 44.4681 348.627 40.2497 350.009 35.2958C351.39 30.3419 350.781 25.0444 348.313 20.5327H348.31Z" fill="#800ADD"/>
<path fill-rule="evenodd" clip-rule="evenodd" d="M308 30C308 17.3184 318.318 7 331 7C343.679 7 354 17.3184 354 30C354 42.6816 343.679 53 331 53C318.318 53 308 42.6816 308 30ZM309.055 30C309.055 42.1009 318.899 51.9449 331 51.9449C343.098 51.9449 352.942 42.1009 352.942 30C352.942 17.8962 343.098 8.05512 331 8.05512C318.896 8.05512 309.055 17.8962 309.055 30Z" fill="#800ADD"/>
</g>
<defs>
<clipPath id="clip0_334_3">
<rect width="46" height="46" fill="white" transform="translate(232 7)"/>
</clipPath>
<clipPath id="clip1_334_3">
<rect width="46" height="46" fill="white" transform="translate(308 7)"/>
</clipPath>
</defs>
</svg>
