<svg width="141" height="34" viewBox="0 0 141 34" fill="none" xmlns="http://www.w3.org/2000/svg">
<path d="M4.56 7.56C4.56 5.928 4.336 4.728 3.888 3.96C3.44 3.16 2.544 2.76 1.2 2.76H0.72V1.32H6.48C7.632 1.32 8.512 1.512 9.12 1.896C9.728 2.28 10.16 2.92 10.416 3.816C10.672 4.68 10.8 5.928 10.8 7.56V30.84H27.36V33H4.56V7.56ZM42.741 33.96C39.637 33.96 36.869 33.224 34.437 31.752C32.037 30.28 30.181 28.264 28.869 25.704C27.557 23.144 26.901 20.296 26.901 17.16C26.901 14.024 27.557 11.176 28.869 8.616C30.181 6.056 32.037 4.04 34.437 2.568C36.869 1.096 39.637 0.36 42.741 0.36C45.845 0.36 48.597 1.096 50.997 2.568C53.397 4.04 55.253 6.056 56.565 8.616C57.877 11.176 58.533 14.024 58.533 17.16C58.533 20.296 57.877 23.144 56.565 25.704C55.253 28.264 53.397 30.28 50.997 31.752C48.597 33.224 45.845 33.96 42.741 33.96ZM42.741 31.8C45.653 31.8 47.909 30.536 49.509 28.008C51.109 25.448 51.909 21.832 51.909 17.16C51.909 12.488 51.109 8.888 49.509 6.36C47.909 3.8 45.653 2.52 42.741 2.52C39.829 2.52 37.573 3.8 35.973 6.36C34.405 8.888 33.621 12.488 33.621 17.16C33.621 21.832 34.405 25.448 35.973 28.008C37.573 30.536 39.829 31.8 42.741 31.8ZM86.6801 29.448L61.7201 18.6V15.24L86.6801 4.392V8.76L67.8641 16.92L86.6801 25.08V29.448ZM90.633 33L106.041 1.32H111.417L96.009 33H90.633ZM115.334 29.448V25.08L134.15 16.92L115.334 8.76V4.392L140.294 15.24V18.6L115.334 29.448Z" fill="white"/>
</svg>
