<svg width="53" height="60" viewBox="0 0 53 60" fill="none" xmlns="http://www.w3.org/2000/svg">
<rect width="53" height="60" fill="#D9D9D9"/>
<g clip-path="url(#clip0_313_45)">
<path d="M40.3198 29.0024C40.3198 26.5644 39.4429 24.8768 38.6926 23.5629L38.4626 23.1891C37.5512 21.7229 36.7548 20.4349 36.7548 18.9341C36.7548 17.1229 38.1291 15.4324 40.0668 15.4324C40.1243 15.4324 40.1789 15.4381 40.2336 15.441L40.3227 15.4496C36.6892 12.1122 31.9336 10.2629 26.9999 10.2689C23.7301 10.2672 20.5112 11.0791 17.6334 12.6315C14.7555 14.1838 12.3092 16.4278 10.5147 19.1612C10.9747 19.1756 11.4146 19.1871 11.7854 19.1871C13.8468 19.1871 17.0409 18.937 17.0409 18.937C18.1047 18.8737 18.2312 20.4349 17.1674 20.5614C17.1674 20.5614 16.1008 20.6879 14.9106 20.7482L22.0981 42.121L26.4106 29.1662L23.3343 20.7454C22.2734 20.6821 21.2672 20.5585 21.2672 20.5585C20.2034 20.4952 20.3299 18.868 21.3908 18.9312C21.3908 18.9312 24.6511 19.1814 26.5888 19.1814C28.6531 19.1814 31.8501 18.9312 31.8501 18.9312C32.9138 18.868 33.0374 20.432 31.9737 20.5585C31.9737 20.5585 30.9042 20.6821 29.7168 20.7454L36.8468 41.9542L38.8133 35.3791L38.9686 34.8817C39.7448 32.4092 40.3169 30.5836 40.3169 28.9995L40.3198 29.0024ZM7.26882 30C7.26862 33.7051 8.31152 37.3355 10.2782 40.4756C12.2448 43.6157 15.0557 46.1388 18.3893 47.756L8.97369 21.9672C7.8462 24.4949 7.26524 27.2322 7.26882 30V30Z" fill="#800ADD"/>
<path d="M21.4253 48.9262L27.3478 31.725L33.4112 48.3425C33.4514 48.4374 33.4974 48.5265 33.552 48.6128C29.6433 49.9898 25.3999 50.0995 21.4253 48.9262V48.9262ZM44.3103 20.5327C44.3965 21.1623 44.4454 21.835 44.4454 22.5624C44.4454 24.5634 44.0717 26.8145 42.9447 29.6292L36.9187 47.0517C41.3655 44.4681 44.6272 40.2497 46.0085 35.2958C47.3898 30.3419 46.7815 25.0444 44.3132 20.5327H44.3103Z" fill="#800ADD"/>
<path fill-rule="evenodd" clip-rule="evenodd" d="M4 30C4 17.3184 14.3184 7 27 7C39.6787 7 50 17.3184 50 30C50 42.6816 39.6787 53 27 53C14.3184 53 4 42.6816 4 30ZM5.05513 30C5.05513 42.1009 14.8991 51.9449 27 51.9449C39.098 51.9449 48.942 42.1009 48.942 30C48.942 17.8962 39.098 8.05513 27 8.05513C14.8962 8.05513 5.05513 17.8962 5.05513 30Z" fill="#800ADD"/>
</g>
<defs>
<clipPath id="clip0_313_45">
<rect width="46" height="46" fill="white" transform="translate(4 7)"/>
</clipPath>
</defs>
</svg>
